<svg id="Iconly_Bulk_Hide" data-name="Iconly/Bulk/Hide" xmlns="http://www.w3.org/2000/svg" width="24" height="24" viewBox="0 0 24 24">
  <g id="Hide" transform="translate(2 3.5)">
    <path id="Fill_1" data-name="Fill 1" d="M9.99,16.244a9.053,9.053,0,0,1-5.278-1.752L7.8,11.372a3.892,3.892,0,0,0,6.088-3.249,4.007,4.007,0,0,0-.673-2.216l3.21-3.239a14.862,14.862,0,0,1,3.512,5.159.749.749,0,0,1,0,.581c-2.088,4.9-5.805,7.836-9.941,7.836ZM.059,8.408a.749.749,0,0,1,0-.581C2.147,2.924,5.864,0,9.99,0H10a8.862,8.862,0,0,1,4,.964l-3.259,3.29A4.487,4.487,0,0,0,10,4.184,3.919,3.919,0,0,0,6.1,8.123a4.676,4.676,0,0,0,.068.748l-3.61,3.642A15.827,15.827,0,0,1,.059,8.408Z" transform="translate(0 0.382)" fill="#315370" opacity="0.4"/>
    <path id="Combined_Shape" data-name="Combined Shape" d="M.212,16.784a.737.737,0,0,1-.088-.926l.029-.04L10.622,5.256l3.092-3.121.869-.877a.236.236,0,0,0,.049-.058.235.235,0,0,0,.049-.059L15.6.214a.734.734,0,0,1,1.034,1.043L14.856,3.049l-3.21,3.239-10.4,10.5A.725.725,0,0,1,.729,17,.706.706,0,0,1,.212,16.784Zm7.083-6.1,3.288-3.317a2.467,2.467,0,0,1-2.156,3.594A2.4,2.4,0,0,1,7.3,10.679Z" transform="translate(1.574)" fill="#315370"/>
  </g>
</svg>
